<svg width="20" height="20" viewBox="0 0 20 20" fill="none" xmlns="http://www.w3.org/2000/svg">
<path d="M8.6 11.8L6.45 9.65C6.26667 9.46667 6.03333 9.375 5.75 9.375C5.46667 9.375 5.23333 9.46667 5.05 9.65C4.86667 9.83333 4.775 10.0667 4.775 10.35C4.775 10.6333 4.86667 10.8667 5.05 11.05L7.9 13.9C8.1 14.1 8.33333 14.2 8.6 14.2C8.86667 14.2 9.1 14.1 9.3 13.9L14.95 8.25C15.1333 8.06667 15.225 7.83333 15.225 7.55C15.225 7.26667 15.1333 7.03333 14.95 6.85C14.7667 6.66667 14.5333 6.575 14.25 6.575C13.9667 6.575 13.7333 6.66667 13.55 6.85L8.6 11.8ZM10 20C8.61667 20 7.31667 19.7373 6.1 19.212C4.88334 18.6867 3.825 17.9743 2.925 17.075C2.025 16.1757 1.31267 15.1173 0.788001 13.9C0.263335 12.6827 0.000667932 11.3827 1.26582e-06 10C-0.000665401 8.61733 0.262001 7.31733 0.788001 6.1C1.314 4.88267 2.02633 3.82433 2.925 2.925C3.82367 2.02567 4.882 1.31333 6.1 0.788C7.318 0.262667 8.618 0 10 0C11.382 0 12.682 0.262667 13.9 0.788C15.118 1.31333 16.1763 2.02567 17.075 2.925C17.9737 3.82433 18.6863 4.88267 19.213 6.1C19.7397 7.31733 20.002 8.61733 20 10C19.998 11.3827 19.7353 12.6827 19.212 13.9C18.6887 15.1173 17.9763 16.1757 17.075 17.075C16.1737 17.9743 15.1153 18.687 13.9 19.213C12.6847 19.739 11.3847 20.0013 10 20Z" fill="black"/>
</svg>
