<svg width="18" height="18" viewBox="0 0 18 18" fill="none" xmlns="http://www.w3.org/2000/svg">
<path d="M6.5 0H1.5C0.671573 0 0 0.671573 0 1.5V6.5C0 7.32843 0.671573 8 1.5 8H6.5C7.32843 8 8 7.32843 8 6.5V1.5C8 0.671573 7.32843 0 6.5 0Z" fill="black"/>
<path d="M16.5 0H11.5C10.6716 0 10 0.671573 10 1.5V6.5C10 7.32843 10.6716 8 11.5 8H16.5C17.3284 8 18 7.32843 18 6.5V1.5C18 0.671573 17.3284 0 16.5 0Z" fill="black"/>
<path d="M6.5 10H1.5C0.671573 10 0 10.6716 0 11.5V16.5C0 17.3284 0.671573 18 1.5 18H6.5C7.32843 18 8 17.3284 8 16.5V11.5C8 10.6716 7.32843 10 6.5 10Z" fill="black"/>
<path d="M16.5 10H11.5C10.6716 10 10 10.6716 10 11.5V16.5C10 17.3284 10.6716 18 11.5 18H16.5C17.3284 18 18 17.3284 18 16.5V11.5C18 10.6716 17.3284 10 16.5 10Z" fill="black"/>
</svg>
