<svg width="14" height="14" viewBox="0 0 14 14" fill="none" xmlns="http://www.w3.org/2000/svg">
<path d="M7.5 0.75V2.75C7.5 2.94891 7.42098 3.13968 7.28033 3.28033C7.13968 3.42098 6.94891 3.5 6.75 3.5C6.55109 3.5 6.36032 3.42098 6.21967 3.28033C6.07902 3.13968 6 2.94891 6 2.75V0.75C6 0.551088 6.07902 0.360322 6.21967 0.21967C6.36032 0.0790177 6.55109 0 6.75 0C6.94891 0 7.13968 0.0790177 7.28033 0.21967C7.42098 0.360322 7.5 0.551088 7.5 0.75ZM12.75 6H10.75C10.5511 6 10.3603 6.07902 10.2197 6.21967C10.079 6.36032 10 6.55109 10 6.75C10 6.94891 10.079 7.13968 10.2197 7.28033C10.3603 7.42098 10.5511 7.5 10.75 7.5H12.75C12.9489 7.5 13.1397 7.42098 13.2803 7.28033C13.421 7.13968 13.5 6.94891 13.5 6.75C13.5 6.55109 13.421 6.36032 13.2803 6.21967C13.1397 6.07902 12.9489 6 12.75 6ZM10.1088 9.04813C10.039 8.97836 9.95616 8.92302 9.86501 8.88526C9.77386 8.84751 9.67616 8.82807 9.5775 8.82807C9.47884 8.82807 9.38114 8.84751 9.28999 8.88526C9.19884 8.92302 9.11602 8.97836 9.04625 9.04813C8.97649 9.11789 8.92114 9.20071 8.88339 9.29186C8.84563 9.38302 8.8262 9.48071 8.8262 9.57938C8.8262 9.67804 8.84563 9.77573 8.88339 9.86689C8.92114 9.95804 8.97649 10.0409 9.04625 10.1106L10.4606 11.525C10.6015 11.6659 10.7926 11.7451 10.9919 11.7451C11.1911 11.7451 11.3822 11.6659 11.5231 11.525C11.664 11.3841 11.7432 11.193 11.7432 10.9937C11.7432 10.7945 11.664 10.6034 11.5231 10.4625L10.1088 9.04813ZM6.75 10C6.55109 10 6.36032 10.079 6.21967 10.2197C6.07902 10.3603 6 10.5511 6 10.75V12.75C6 12.9489 6.07902 13.1397 6.21967 13.2803C6.36032 13.421 6.55109 13.5 6.75 13.5C6.94891 13.5 7.13968 13.421 7.28033 13.2803C7.42098 13.1397 7.5 12.9489 7.5 12.75V10.75C7.5 10.5511 7.42098 10.3603 7.28033 10.2197C7.13968 10.079 6.94891 10 6.75 10ZM3.39125 9.04813L1.97688 10.4625C1.83598 10.6034 1.75682 10.7945 1.75682 10.9937C1.75682 11.193 1.83598 11.3841 1.97688 11.525C2.11777 11.6659 2.30887 11.7451 2.50813 11.7451C2.70738 11.7451 2.89848 11.6659 3.03937 11.525L4.45375 10.1106C4.59465 9.96973 4.6738 9.77863 4.6738 9.57938C4.6738 9.38012 4.59465 9.18902 4.45375 9.04813C4.31285 8.90723 4.12176 8.82807 3.9225 8.82807C3.72324 8.82807 3.53215 8.90723 3.39125 9.04813ZM3.5 6.75C3.5 6.55109 3.42098 6.36032 3.28033 6.21967C3.13968 6.07902 2.94891 6 2.75 6H0.75C0.551088 6 0.360322 6.07902 0.21967 6.21967C0.0790177 6.36032 0 6.55109 0 6.75C0 6.94891 0.0790177 7.13968 0.21967 7.28033C0.360322 7.42098 0.551088 7.5 0.75 7.5H2.75C2.94891 7.5 3.13968 7.42098 3.28033 7.28033C3.42098 7.13968 3.5 6.94891 3.5 6.75ZM3.0375 1.97688C2.96774 1.90711 2.88491 1.85177 2.79376 1.81401C2.70261 1.77626 2.60491 1.75682 2.50625 1.75682C2.40759 1.75682 2.30989 1.77626 2.21874 1.81401C2.12759 1.85177 2.04476 1.90711 1.975 1.97688C1.90524 2.04664 1.84989 2.12946 1.81214 2.22061C1.77438 2.31177 1.75495 2.40946 1.75495 2.50813C1.75495 2.60679 1.77438 2.70448 1.81214 2.79564C1.84989 2.88679 1.90524 2.96961 1.975 3.03937L3.39125 4.45188C3.53215 4.59277 3.72324 4.67193 3.9225 4.67193C4.12176 4.67193 4.31285 4.59277 4.45375 4.45188C4.59465 4.31098 4.6738 4.11988 4.6738 3.92063C4.6738 3.72137 4.59465 3.53027 4.45375 3.38938L3.0375 1.97688Z" fill="black"/>
</svg>
